<?xml version="1.0" encoding="UTF-8" standalone="no"?>
<!-- Generator: Adobe Illustrator 15.0.2, SVG Export Plug-In . SVG Version: 6.00 Build 0)  -->

<svg
   xmlns:dc="http://purl.org/dc/elements/1.1/"
   xmlns:cc="http://creativecommons.org/ns#"
   xmlns:rdf="http://www.w3.org/1999/02/22-rdf-syntax-ns#"
   xmlns:svg="http://www.w3.org/2000/svg"
   xmlns="http://www.w3.org/2000/svg"
   xmlns:sodipodi="http://sodipodi.sourceforge.net/DTD/sodipodi-0.dtd"
   xmlns:inkscape="http://www.inkscape.org/namespaces/inkscape"
   version="1.1"
   id="Ebene_1"
   x="0px"
   y="0px"
   width="100px"
   height="100px"
   viewBox="0 0 100 100"
   enable-background="new 0 0 100 100"
   xml:space="preserve"
   inkscape:version="0.48.2 r9819"
   sodipodi:docname="noun_project_326a.svg"><metadata
   id="metadata11"><rdf:RDF><cc:Work
       rdf:about=""><dc:format>image/svg+xml</dc:format><dc:type
         rdf:resource="http://purl.org/dc/dcmitype/StillImage" /></cc:Work></rdf:RDF></metadata><defs
   id="defs9" /><sodipodi:namedview
   pagecolor="#ffffff"
   bordercolor="#666666"
   borderopacity="1"
   objecttolerance="10"
   gridtolerance="10"
   guidetolerance="10"
   inkscape:pageopacity="0"
   inkscape:pageshadow="2"
   inkscape:window-width="640"
   inkscape:window-height="480"
   id="namedview7"
   showgrid="false"
   inkscape:zoom="2.36"
   inkscape:cx="50"
   inkscape:cy="50"
   inkscape:window-x="0"
   inkscape:window-y="0"
   inkscape:window-maximized="0"
   inkscape:current-layer="Ebene_1" />
<circle
   fill="#B2B2B2"
   cx="50"
   cy="50"
   r="50"
   id="circle3" />
<path
   d="m 79.727254,25.584916 c -0.0317,0.140464 0.06484,0.156312 0.165676,0.164956 0.685034,-0.139744 0.509273,0.67495 0.825499,0.993336 0.09869,0.09652 0.713127,-0.115973 0.662704,0.332073 0.746983,-0.844227 2.433997,-0.278769 3.477036,-0.497029 -0.218981,0.720331 -1.066809,0.808931 -1.656041,1.158292 -0.613,0.63029 -1.298035,0.857193 -2.152346,1.324688 -0.0742,0.04034 -0.275888,0.314064 -0.331353,0.330632 -0.140465,0.04394 -0.360886,-0.06194 -0.495587,0 -0.144787,0.06699 -0.109491,0.278767 -0.332073,0.330631 -0.150549,0.03529 -0.351522,-0.05258 -0.496307,0 -0.08572,0.03098 -0.268684,0.313345 -0.331353,0.332073 -0.148388,0.04466 -0.350802,-0.05547 -0.495587,0 -0.08428,0.0317 -0.270124,0.312623 -0.330632,0.330632 -0.373851,0.112371 -0.783721,0.159913 -1.160452,0.330631 -1.45723,0.668467 -2.748062,1.704303 -3.971904,2.815773 -0.921303,0.834863 -1.626507,1.741759 -2.48442,2.813611 -0.417791,0.525122 -0.834143,1.171978 -1.321087,1.65532 -0.917702,0.906176 -2.256796,1.541508 -2.982168,2.813611 -1.043039,0.280929 -1.478119,1.171257 -2.317305,1.65532 -0.06771,0.399063 0.30182,0.359446 0.164236,0.82766 -1.065369,-0.712406 -0.857192,1.626506 -1.818114,0.993336 -0.04466,2.417429 0.01729,4.72753 0.164955,6.951912 -0.291013,0.152709 -0.576264,0.309021 -0.496308,0.826218 -0.315503,0.312624 -0.41491,0.01944 -0.82838,0 -0.178641,0.21682 -0.127497,0.525841 -0.329911,0.663425 -0.188726,0.127499 -0.30686,-0.169278 -0.331352,-0.164956 -0.227625,0.03242 -0.03529,0.234828 -0.165677,0.330632 -0.308301,0.226904 -0.806769,0.188727 -0.991894,0.82838 -0.339276,-0.332793 -0.324149,0.07348 -0.662705,0.165676 -0.13182,0.971726 -0.517918,1.688455 -1.157571,2.149467 0,0.441563 0,0.883845 0,1.326849 0.315505,0.410588 0.718169,-0.208176 1.157571,0.164235 0.225464,0.656221 0.569782,1.195028 0.991895,1.65604 -0.265801,0.727534 -0.645415,1.341255 -0.991895,1.986672 0.04466,0.561858 -0.129659,1.343418 0.164956,1.656761 -0.07131,0.316225 -0.05979,0.712406 -0.497028,0.659821 0.564019,1.01999 0.599315,2.774715 0,3.80983 0.804609,0.795245 2.007562,1.191427 2.4837,2.317304 0.448766,0.103732 1.313883,-0.211057 1.489644,0.164955 0.636771,0.02449 0.403385,0.920583 0.82622,1.158291 1.235367,0.310463 2.302176,0.788763 3.144963,1.488204 -0.08644,0.69512 0.288852,0.924905 0.331352,1.489644 0.814693,0.618764 1.661802,1.209436 2.482258,1.820275 0.273726,-0.02161 -0.172878,-0.690797 0,-1.156851 0.547453,-0.08716 1.432738,0.136863 1.986673,0.495588 0.10805,0.07202 0.08933,0.28525 0.164955,0.330632 0.189448,0.115253 0.492707,0.02809 0.663425,0.165676 0.05547,0.04466 -0.05186,0.278768 0,0.331352 0.05402,0.05402 0.279489,-0.05619 0.331352,0 0.08716,0.09436 0.07995,0.242751 0.164956,0.331352 0.288853,0.301819 0.641815,1.269223 0.330632,1.985231 0.07851,0.678552 -0.414911,-0.0036 -0.659824,0 0.488385,0.638934 0.05907,1.512694 0.164957,2.318745 0.09436,0.724653 0.52584,1.281467 0.495587,1.986671 -15.007368,0.672785 -31.250824,0.584912 -46.682467,0.332073 0.306861,-4.674226 -0.409148,-9.567431 0,-14.238055 0.03529,-0.396903 0.277327,-0.773635 0.330632,-1.158292 0.200972,-1.426255 -0.09292,-3.219878 0,-4.800283 0.05258,-0.868719 0.381055,-1.605617 0,-2.316584 C 26.089994,59.629903 25.070006,59.60253 24.435395,59.18762 24.22938,58.787117 24.025527,58.385171 23.938367,57.862932 23.72875,57.46603 23.213714,57.374547 23.277103,56.705361 c 0.184405,-0.946515 1.251936,-1.065369 1.820996,-1.656041 0.206735,-0.214659 0.06484,-0.660543 0.496308,-0.660543 0.376733,-2.20205 0.199532,-3.946691 0,-6.126412 -1.238969,-1.72375 -1.788581,-4.856468 -1.159012,-7.119027 -0.02306,-0.584909 -0.473977,-0.73978 -0.497028,-1.323968 0.215379,-1.497567 -0.05043,-4.359441 0,-5.958575 0.04466,-1.377992 -0.260039,-2.256076 -0.661264,-3.477036 -0.105164,-0.321988 -0.385376,-0.649738 -0.497028,-0.993336 -0.08212,-0.249235 0.07851,-0.576265 0,-0.82694 -0.02306,-0.07492 -0.321267,-0.285251 -0.331351,-0.332072 -0.203135,-0.945794 -0.05691,-1.759047 -0.661984,-2.482979 0.680712,-1.680532 -0.453089,-4.772912 0.661984,-6.289207 -0.425716,-1.393841 -0.862956,-2.778315 -1.158292,-4.303256 5.543664,0.250675 11.333682,0.254277 16.885269,0.497028 0.370251,-1.230324 0.06627,-3.134158 0.165677,-4.636048 0.798846,0.309742 1.435619,-0.03457 1.985951,0.165677 0.07995,0.02881 0.103012,0.302538 0.165677,0.330631 0.235548,0.106606 0.540248,0.121736 0.827659,0.330632 -0.06627,1.409687 0.546731,3.523858 0.993337,4.96668 0.07276,0.570502 -0.06556,0.928506 -0.165676,1.326129 0.440121,1.031513 1.607776,1.316765 2.979287,0.992615 0.63317,-0.07995 0.517917,0.585629 0.828379,0.82766 1.232487,-0.128939 1.973706,0.232667 3.144964,0.165676 0.146948,0.404105 0.386098,0.71817 0.330633,1.323968 0.601475,0.222582 1.472355,-0.144066 2.317303,-0.165676 0.262921,-0.199532 0.144786,-0.455249 0.331352,-0.660543 0.247793,-0.276607 1.052403,-0.614442 1.323968,-0.662704 0.303259,-0.05475 0.674229,0.123176 1.159012,0.165676 0.404106,0.03601 1.602015,-0.219701 1.821716,0 0.03963,0.04106 -0.04899,0.30614 0,0.330632 0.128219,0.06699 0.365928,-0.06771 0.495588,0 0.518638,0.274445 1.287231,0.797404 2.152348,0.827659 0.216819,0.713849 -0.470377,0.5244 -0.662705,0.828379 0.285251,0.690079 1.266341,-0.201691 1.820276,0.330633 0.266522,0.89177 0.231945,2.086799 1.157571,2.316583 0.396182,-0.443004 -0.100128,-0.751305 0.164956,-1.323247 0.533765,-0.23987 1.389517,-0.157032 2.152347,-0.166396 0.34792,0.314064 0.511435,0.814694 0.663425,1.325408 0.946515,-0.06556 1.081217,0.682153 2.149467,0.496308 0.193049,0.194489 0.189446,0.584908 0.165676,0.993336 0.319106,0.286692 1.362145,-0.148388 1.157571,0.661263 0.970285,-0.144066 1.347739,-0.0497 2.318745,-0.330631 0.877362,-0.888169 1.894469,-1.638032 3.144963,-2.153069 0.678551,0.09436 0.437961,1.108588 0.992615,1.324688 0.292455,-0.680712 0.100129,0.576985 0,0.497029 0.146228,0.118854 0.537367,-0.275887 1.159012,-0.332073 0.574104,-0.05114 1.456509,0.193769 1.985232,0.165676 0.922023,-0.04609 1.731675,-0.426436 2.325227,-0.330632 z m -7.780291,51.979779 c -0.04466,-0.04466 -0.252116,0.07995 -0.165676,0.165676 0.04538,0.04538 0.251395,-0.07995 0.165676,-0.165676 z"
   id="path5"
   inkscape:connector-curvature="0" />
</svg>