<?xml version="1.0" encoding="utf-8"?>
<!-- Generator: Adobe Illustrator 14.0.0, SVG Export Plug-In . SVG Version: 6.00 Build 43363)  -->
<!DOCTYPE svg PUBLIC "-//W3C//DTD SVG 1.1//EN" "http://www.w3.org/Graphics/SVG/1.1/DTD/svg11.dtd">
<svg version="1.1" id="Ebene_1" xmlns="http://www.w3.org/2000/svg" xmlns:xlink="http://www.w3.org/1999/xlink" x="0px" y="0px"
	 width="100px" height="100px" viewBox="0 0 100 100" enable-background="new 0 0 100 100" xml:space="preserve">
<circle fill="#B2B2B2" cx="50" cy="50.001" r="50"/>
<path d="M74.16,57.688c0.705-0.886,0.635-1.505,0.545-2.076c-0.091-0.571-0.33-2.057-2.6-2.57c0.09-0.388,0.084-0.965-0.646-0.59
	c0.031-0.258,0.151-0.434,0.55-0.56c0.4-0.126,0.735-0.29,1.223-0.804c0.489-0.514,0.684-1.4,0.754-2.192
	c0.071-0.794-0.021-1.367-0.021-1.367l-0.638,0.52c0,0,0.244,1.592-0.186,2.468c-0.43,0.872-0.443,0.98-0.903,1.194
	c-0.752,0.376-1.452,0.451-1.547,0.755c-0.091,0.304-0.188,0.073-0.324-0.09c-0.136-0.165-0.688-0.523-0.989-0.617
	c-0.305-0.094-0.691-0.162-0.996,0.175c-0.305,0.335-0.325,0.379-0.271,0.632c0,0-3.921-2.06-8.61-2.268
	c-4.688-0.209-8.101-0.028-14.989,2.045c-3.135,1.064-5.007,2.648-5.562,3.102s-1.524,1.203-1.837,1.388
	c-0.659-0.823-2.512-2.082-3.189-2.414c-0.678-0.332-1.771-0.836-2.936-0.611s-1.205,0.763-1.135,1.355
	c0.07,0.595,0.298,1.823,0.404,2.245c0.107,0.422,0.515,1.386,0.561,1.962c-0.874,0.487-1.973,1.651-2.515,2.424
	c-0.538,0.773-0.78,1.552-1.525,2.528c-0.747,0.974-1.492,1.479-1.869,1.625c-0.378,0.146-0.746,0.056-1.276,0.124
	c-0.532,0.068-0.549,0.132-0.806,0.167c-0.254,0.033-1.746,0.08-2.12,0.333c-0.374,0.254-0.66,0.972-0.255,3.259
	c0.408,2.291,1.018,2.56,1.857,3.183c0.178,0.121-0.106,0.474,0.278,0.862c0.38,0.389,0.565,0.273,1.073,0.591
	c0.506,0.318,1.158,0.523,2.637,1.523c1.477,0.998,2.334,1.065,3.274,1.488c0.94,0.428,1.609,1.014,2.912,1.491
	c1.306,0.472,2.755,0.381,4.371,0.713c0.261,0.053,0.459,0.191,0.459,0.191s0.315,0.37,0.728,0.5
	c0.194,0.076,0.539,1.021,0.81,2.654c0.268,1.632,0.259,1.933,0.115,3.862c-0.147,1.928-0.363,1.831-0.238,2.703
	c-0.033,0.192-0.011,0.212,0.166,0.334c0.176,0.119,0.244,0.181,0.523,0.23c0.28,0.053,0.796,0.092,2.162,0.07
	c1.366-0.02,2.296-0.256,2.131-0.59c0.337-0.146,0.328-0.315,0.328-0.315s0.331-0.25,0.513-0.494c0.374-0.23,0.477-0.28,0.927-1.177
	c0.451-0.896,1.158-3.108,1.674-4.438c0.21-0.542,0.569-1.07,0.569-1.07s1.4-0.217,2.796-0.045c0.325,0.049,1.021-0.114,1.83-0.17
	c0.811-0.06,1.408-0.088,1.98-0.158c0.576-0.068,2.125-0.292,3.121-0.423c1-0.13,1.851-0.214,3.42-0.481
	c1.566-0.264,1.785-0.188,1.945,0.485c0.158,0.677,0.228,1.697,0.239,2.382c0.011,0.685,0.06,1.3,0.36,1.778
	c-0.487,0.065-0.042,0.473,0.109,0.53c0.153,0.06,0.434,0.15,0.647,0.118c0.044,0.49,0.147,1.79,0.685,2.339
	c-0.223,0.202,0.062,0.362,0.319,0.434c0.261,0.075,1.188,0.245,2.444,0.143c1.258-0.101,1.508-0.198,1.718-0.272
	c0.212-0.075,0.034-0.213,0.281-0.376c0.25-0.162-0.056-0.253-0.056-0.253s0.264-0.313,0.949-2.095
	c0.688-1.786,0.554-1.906,0.957-2.887c0.402-0.982,0.56-1.716,0.785-3.306c0.227-1.592,0.051-2.097,1.282-4.566
	c1.231-2.472,2.093-3.281,2.82-7.396C77.074,63.812,75.132,58.795,74.16,57.688z M68.785,52.832
	c-0.456-0.619,0.662-0.885,0.662-0.885c0.8,0.199,0.256,0.885,1.127,0.801c-0.498,0.279-1.395,0.344-1.395,0.344
	S68.982,52.972,68.785,52.832z M70.1,53.54c-0.26-0.053-0.396-0.259-0.08-0.338c0.316-0.08,0.634-0.117,0.634-0.117
	S70.602,53.324,70.1,53.54z M72.555,55.327c0,0-0.091-0.103-0.163-0.271c-0.072-0.167,0.187-0.094,0.187-0.094
	C72.846,55.161,72.555,55.327,72.555,55.327z"/>
<path d="M41.794,43.383c-0.014-2.485,1.989-4.513,4.474-4.526c2.484-0.016,4.512,1.987,4.526,4.473
	c0.016,2.485-1.993,4.698-4.472,4.526C43.43,47.658,41.81,45.868,41.794,43.383z"/>
<path d="M49.056,31.672c-0.016-2.669,2.135-4.846,4.804-4.861c2.669-0.017,4.846,2.134,4.863,4.804
	c0.016,2.67-2.139,4.989-4.805,4.862C51.125,36.346,49.072,34.342,49.056,31.672z"/>
<path d="M37.349,25.076c-0.014-2.484,1.988-4.512,4.474-4.526c2.485-0.016,4.299,1.997,4.526,4.473
	c0.214,2.335-1.988,4.512-4.472,4.527C39.391,29.564,37.364,27.561,37.349,25.076z"/>
<path d="M47.96,15.513c-0.016-2.579,2.06-4.68,4.638-4.695s4.679,2.061,4.694,4.639c0.016,2.577-2.062,4.606-4.641,4.694
	C49.942,20.242,47.976,18.09,47.96,15.513z"/>
</svg>
